<svg width="20" height="20" viewBox="0 0 20 20" fill="none" xmlns="http://www.w3.org/2000/svg">
<path d="M18.0305 16.5598L14.8044 13.3324C17.2183 10.1065 16.5601 5.53463 13.3343 3.12073C10.1085 0.706835 5.53659 1.36503 3.12269 4.59084C0.708788 7.81665 1.36698 12.3886 4.59279 14.8025C7.18403 16.7415 10.743 16.7415 13.3343 14.8025L16.5617 18.0299C16.9673 18.4355 17.6249 18.4355 18.0304 18.0299C18.436 17.6243 18.436 16.9667 18.0304 16.5612L18.0305 16.5598ZM8.99044 14.1795C6.1235 14.1795 3.7994 11.8554 3.7994 8.98849C3.7994 6.12154 6.1235 3.79745 8.99044 3.79745C11.8574 3.79745 14.1815 6.12154 14.1815 8.98849C14.1784 11.8541 11.8561 14.1765 8.99044 14.1795Z" fill="#8292A6"/>
</svg>
